<mxfile host="app.diagrams.net" modified="2024-05-21T13:39:16.664Z" agent="Mozilla/5.0 (Macintosh; Intel Mac OS X 10_15_7) AppleWebKit/605.1.15 (KHTML, like Gecko) Version/17.5 Safari/605.1.15" etag="AIJz_tJ4E5EgxDGNPF02" version="24.4.4" type="device" pages="2">
  <diagram name="Page-1" id="929967ad-93f9-6ef4-fab6-5d389245f69c">
    <mxGraphModel dx="1468" dy="858" grid="1" gridSize="10" guides="1" tooltips="1" connect="1" arrows="1" fold="1" page="1" pageScale="1.5" pageWidth="1169" pageHeight="826" background="none" math="0" shadow="0">
      <root>
        <mxCell id="0" style=";html=1;" />
        <mxCell id="1" style=";html=1;" parent="0" />
        <mxCell id="1672d66443f91eb5-1" value="&lt;p style=&quot;margin: 0px ; margin-top: 4px ; margin-left: 10px ; text-align: left&quot;&gt;&lt;b&gt;State&amp;nbsp;&lt;/b&gt;&lt;span style=&quot;text-align: center;&quot;&gt;online ordering&lt;/span&gt;&lt;br&gt;&lt;/p&gt;" style="html=1;strokeWidth=1;shape=mxgraph.sysml.package;html=1;overflow=fill;whiteSpace=wrap;fillColor=none;gradientColor=none;fontSize=12;align=center;labelX=327.64;" parent="1" vertex="1">
          <mxGeometry x="315" y="230" width="1120" height="650" as="geometry" />
        </mxCell>
        <mxCell id="1672d66443f91eb5-23" value="Title" style="text;strokeColor=none;fillColor=none;html=1;fontSize=24;fontStyle=1;verticalAlign=middle;align=center;" parent="1" vertex="1">
          <mxGeometry x="120" y="40" width="1510" height="40" as="geometry" />
        </mxCell>
        <mxCell id="efe_fb2LawiKcRLY6Q70-64" style="edgeStyle=orthogonalEdgeStyle;rounded=0;orthogonalLoop=1;jettySize=auto;html=1;entryX=0.5;entryY=1;entryDx=0;entryDy=0;" edge="1" parent="1" source="efe_fb2LawiKcRLY6Q70-2" target="efe_fb2LawiKcRLY6Q70-59">
          <mxGeometry relative="1" as="geometry" />
        </mxCell>
        <mxCell id="efe_fb2LawiKcRLY6Q70-2" value="" style="ellipse;html=1;shape=startState;fillColor=#000000;strokeColor=#ff0000;" vertex="1" parent="1">
          <mxGeometry x="370" y="650" width="40" height="40" as="geometry" />
        </mxCell>
        <mxCell id="efe_fb2LawiKcRLY6Q70-6" value="" style="ellipse;html=1;shape=endState;fillColor=#000000;strokeColor=#ff0000;" vertex="1" parent="1">
          <mxGeometry x="1260" y="750" width="30" height="30" as="geometry" />
        </mxCell>
        <mxCell id="efe_fb2LawiKcRLY6Q70-20" style="edgeStyle=orthogonalEdgeStyle;rounded=0;orthogonalLoop=1;jettySize=auto;html=1;entryX=0;entryY=0.5;entryDx=0;entryDy=0;curved=1;" edge="1" parent="1" source="efe_fb2LawiKcRLY6Q70-7" target="efe_fb2LawiKcRLY6Q70-15">
          <mxGeometry relative="1" as="geometry" />
        </mxCell>
        <mxCell id="efe_fb2LawiKcRLY6Q70-7" value="Заказ создан" style="rounded=1;whiteSpace=wrap;html=1;" vertex="1" parent="1">
          <mxGeometry x="550" y="390" width="90" height="40" as="geometry" />
        </mxCell>
        <mxCell id="efe_fb2LawiKcRLY6Q70-14" style="edgeStyle=orthogonalEdgeStyle;rounded=0;orthogonalLoop=1;jettySize=auto;html=1;exitX=1;exitY=0.5;exitDx=0;exitDy=0;entryX=0;entryY=0.5;entryDx=0;entryDy=0;curved=1;" edge="1" parent="1" source="efe_fb2LawiKcRLY6Q70-10" target="efe_fb2LawiKcRLY6Q70-13">
          <mxGeometry relative="1" as="geometry" />
        </mxCell>
        <mxCell id="efe_fb2LawiKcRLY6Q70-10" value="Заказ не оплачен" style="rounded=1;whiteSpace=wrap;html=1;" vertex="1" parent="1">
          <mxGeometry x="530" y="530" width="100" height="40" as="geometry" />
        </mxCell>
        <mxCell id="efe_fb2LawiKcRLY6Q70-12" value="Оплата безналичными" style="text;html=1;align=center;verticalAlign=middle;whiteSpace=wrap;rounded=0;" vertex="1" parent="1">
          <mxGeometry x="470" y="500" width="60" height="30" as="geometry" />
        </mxCell>
        <mxCell id="efe_fb2LawiKcRLY6Q70-62" style="edgeStyle=orthogonalEdgeStyle;rounded=0;orthogonalLoop=1;jettySize=auto;html=1;entryX=0.5;entryY=1;entryDx=0;entryDy=0;curved=1;" edge="1" parent="1" source="efe_fb2LawiKcRLY6Q70-13" target="efe_fb2LawiKcRLY6Q70-7">
          <mxGeometry relative="1" as="geometry">
            <Array as="points">
              <mxPoint x="710" y="460" />
              <mxPoint x="595" y="460" />
            </Array>
          </mxGeometry>
        </mxCell>
        <mxCell id="efe_fb2LawiKcRLY6Q70-66" style="edgeStyle=orthogonalEdgeStyle;rounded=0;orthogonalLoop=1;jettySize=auto;html=1;entryX=0.5;entryY=0;entryDx=0;entryDy=0;" edge="1" parent="1" source="efe_fb2LawiKcRLY6Q70-13" target="efe_fb2LawiKcRLY6Q70-65">
          <mxGeometry relative="1" as="geometry" />
        </mxCell>
        <mxCell id="efe_fb2LawiKcRLY6Q70-13" value="Оплата заказа" style="rounded=1;whiteSpace=wrap;html=1;" vertex="1" parent="1">
          <mxGeometry x="670" y="530" width="100" height="40" as="geometry" />
        </mxCell>
        <mxCell id="efe_fb2LawiKcRLY6Q70-25" style="edgeStyle=orthogonalEdgeStyle;rounded=0;orthogonalLoop=1;jettySize=auto;html=1;entryX=0;entryY=0.5;entryDx=0;entryDy=0;" edge="1" parent="1" source="efe_fb2LawiKcRLY6Q70-15" target="efe_fb2LawiKcRLY6Q70-24">
          <mxGeometry relative="1" as="geometry" />
        </mxCell>
        <mxCell id="efe_fb2LawiKcRLY6Q70-15" value="&amp;nbsp;Заказ передан курьерской службе и ресторану" style="rounded=1;whiteSpace=wrap;html=1;" vertex="1" parent="1">
          <mxGeometry x="710" y="340" width="120" height="60" as="geometry" />
        </mxCell>
        <mxCell id="efe_fb2LawiKcRLY6Q70-18" value="Оплата не прошла" style="text;html=1;align=center;verticalAlign=middle;whiteSpace=wrap;rounded=0;" vertex="1" parent="1">
          <mxGeometry x="630" y="590" width="80" height="30" as="geometry" />
        </mxCell>
        <mxCell id="efe_fb2LawiKcRLY6Q70-22" value="Заказ успешно оплачен" style="text;html=1;align=center;verticalAlign=middle;whiteSpace=wrap;rounded=0;" vertex="1" parent="1">
          <mxGeometry x="660" y="440" width="100" height="30" as="geometry" />
        </mxCell>
        <mxCell id="efe_fb2LawiKcRLY6Q70-23" value="Выбрана оплата наличными" style="text;html=1;align=center;verticalAlign=middle;whiteSpace=wrap;rounded=0;" vertex="1" parent="1">
          <mxGeometry x="390" y="380" width="120" height="30" as="geometry" />
        </mxCell>
        <mxCell id="efe_fb2LawiKcRLY6Q70-32" style="edgeStyle=orthogonalEdgeStyle;rounded=0;orthogonalLoop=1;jettySize=auto;html=1;entryX=0.5;entryY=0;entryDx=0;entryDy=0;curved=1;" edge="1" parent="1" source="efe_fb2LawiKcRLY6Q70-24" target="efe_fb2LawiKcRLY6Q70-31">
          <mxGeometry relative="1" as="geometry" />
        </mxCell>
        <mxCell id="efe_fb2LawiKcRLY6Q70-24" value="Заказ готовится" style="rounded=1;whiteSpace=wrap;html=1;" vertex="1" parent="1">
          <mxGeometry x="920" y="340" width="120" height="60" as="geometry" />
        </mxCell>
        <mxCell id="efe_fb2LawiKcRLY6Q70-35" style="edgeStyle=orthogonalEdgeStyle;rounded=0;orthogonalLoop=1;jettySize=auto;html=1;curved=1;" edge="1" parent="1" source="efe_fb2LawiKcRLY6Q70-28" target="efe_fb2LawiKcRLY6Q70-30">
          <mxGeometry relative="1" as="geometry" />
        </mxCell>
        <mxCell id="efe_fb2LawiKcRLY6Q70-40" style="edgeStyle=orthogonalEdgeStyle;rounded=0;orthogonalLoop=1;jettySize=auto;html=1;exitX=1;exitY=0.5;exitDx=0;exitDy=0;entryX=0;entryY=0.5;entryDx=0;entryDy=0;curved=1;" edge="1" parent="1" source="efe_fb2LawiKcRLY6Q70-28" target="efe_fb2LawiKcRLY6Q70-38">
          <mxGeometry relative="1" as="geometry" />
        </mxCell>
        <mxCell id="efe_fb2LawiKcRLY6Q70-28" value="Заказ передан курьеру" style="rounded=1;whiteSpace=wrap;html=1;" vertex="1" parent="1">
          <mxGeometry x="990" y="540" width="120" height="60" as="geometry" />
        </mxCell>
        <mxCell id="efe_fb2LawiKcRLY6Q70-43" style="edgeStyle=orthogonalEdgeStyle;rounded=0;orthogonalLoop=1;jettySize=auto;html=1;exitX=1;exitY=0.5;exitDx=0;exitDy=0;entryX=0.5;entryY=0;entryDx=0;entryDy=0;curved=1;" edge="1" parent="1" source="efe_fb2LawiKcRLY6Q70-30" target="efe_fb2LawiKcRLY6Q70-42">
          <mxGeometry relative="1" as="geometry" />
        </mxCell>
        <mxCell id="efe_fb2LawiKcRLY6Q70-30" value="Заказ доставлен" style="rounded=1;whiteSpace=wrap;html=1;" vertex="1" parent="1">
          <mxGeometry x="840" y="630" width="120" height="60" as="geometry" />
        </mxCell>
        <mxCell id="efe_fb2LawiKcRLY6Q70-34" style="edgeStyle=orthogonalEdgeStyle;rounded=0;orthogonalLoop=1;jettySize=auto;html=1;entryX=0.5;entryY=0;entryDx=0;entryDy=0;curved=1;" edge="1" parent="1" source="efe_fb2LawiKcRLY6Q70-31" target="efe_fb2LawiKcRLY6Q70-28">
          <mxGeometry relative="1" as="geometry" />
        </mxCell>
        <mxCell id="efe_fb2LawiKcRLY6Q70-31" value="Ожидание курьера" style="rounded=1;whiteSpace=wrap;html=1;" vertex="1" parent="1">
          <mxGeometry x="840" y="440" width="120" height="60" as="geometry" />
        </mxCell>
        <mxCell id="efe_fb2LawiKcRLY6Q70-36" value="Курьер успешно доставил заказ" style="text;html=1;align=center;verticalAlign=middle;whiteSpace=wrap;rounded=0;" vertex="1" parent="1">
          <mxGeometry x="800" y="560" width="120" height="30" as="geometry" />
        </mxCell>
        <mxCell id="efe_fb2LawiKcRLY6Q70-38" value="Не доставлен" style="rounded=1;whiteSpace=wrap;html=1;" vertex="1" parent="1">
          <mxGeometry x="1170" y="500" width="120" height="60" as="geometry" />
        </mxCell>
        <mxCell id="efe_fb2LawiKcRLY6Q70-41" value="Курьер не смог доставить заказ" style="text;html=1;align=center;verticalAlign=middle;whiteSpace=wrap;rounded=0;" vertex="1" parent="1">
          <mxGeometry x="1100" y="490" width="60" height="30" as="geometry" />
        </mxCell>
        <mxCell id="efe_fb2LawiKcRLY6Q70-47" style="edgeStyle=orthogonalEdgeStyle;rounded=0;orthogonalLoop=1;jettySize=auto;html=1;curved=1;" edge="1" parent="1" source="efe_fb2LawiKcRLY6Q70-42" target="efe_fb2LawiKcRLY6Q70-6">
          <mxGeometry relative="1" as="geometry" />
        </mxCell>
        <mxCell id="efe_fb2LawiKcRLY6Q70-42" value="Оценка качества обслуживания" style="rounded=1;whiteSpace=wrap;html=1;" vertex="1" parent="1">
          <mxGeometry x="990" y="690" width="120" height="60" as="geometry" />
        </mxCell>
        <mxCell id="efe_fb2LawiKcRLY6Q70-46" style="edgeStyle=orthogonalEdgeStyle;rounded=0;orthogonalLoop=1;jettySize=auto;html=1;curved=1;" edge="1" parent="1" source="efe_fb2LawiKcRLY6Q70-44" target="efe_fb2LawiKcRLY6Q70-6">
          <mxGeometry relative="1" as="geometry" />
        </mxCell>
        <mxCell id="efe_fb2LawiKcRLY6Q70-50" style="edgeStyle=orthogonalEdgeStyle;rounded=0;orthogonalLoop=1;jettySize=auto;html=1;exitX=1;exitY=0.5;exitDx=0;exitDy=0;" edge="1" parent="1" source="efe_fb2LawiKcRLY6Q70-44" target="efe_fb2LawiKcRLY6Q70-15">
          <mxGeometry relative="1" as="geometry">
            <Array as="points">
              <mxPoint x="1350" y="640" />
              <mxPoint x="1350" y="300" />
              <mxPoint x="770" y="300" />
            </Array>
          </mxGeometry>
        </mxCell>
        <mxCell id="efe_fb2LawiKcRLY6Q70-44" value="Заказ на рассмотрении у службы поддержки" style="rounded=1;whiteSpace=wrap;html=1;" vertex="1" parent="1">
          <mxGeometry x="1210" y="610" width="120" height="60" as="geometry" />
        </mxCell>
        <mxCell id="efe_fb2LawiKcRLY6Q70-45" style="edgeStyle=orthogonalEdgeStyle;rounded=0;orthogonalLoop=1;jettySize=auto;html=1;entryX=0.442;entryY=0.02;entryDx=0;entryDy=0;entryPerimeter=0;curved=1;" edge="1" parent="1" source="efe_fb2LawiKcRLY6Q70-38" target="efe_fb2LawiKcRLY6Q70-44">
          <mxGeometry relative="1" as="geometry" />
        </mxCell>
        <mxCell id="efe_fb2LawiKcRLY6Q70-48" value="Клиент не стал ещё раз заказывать товар и ему вернулись деньги" style="text;html=1;align=center;verticalAlign=middle;whiteSpace=wrap;rounded=0;" vertex="1" parent="1">
          <mxGeometry x="1260" y="690" width="180" height="30" as="geometry" />
        </mxCell>
        <mxCell id="efe_fb2LawiKcRLY6Q70-51" value="Клиенту готовится заново заказ" style="text;html=1;align=center;verticalAlign=middle;whiteSpace=wrap;rounded=0;" vertex="1" parent="1">
          <mxGeometry x="940" y="270" width="240" height="30" as="geometry" />
        </mxCell>
        <mxCell id="efe_fb2LawiKcRLY6Q70-55" value="Заказ приготовлен" style="text;html=1;align=center;verticalAlign=middle;whiteSpace=wrap;rounded=0;" vertex="1" parent="1">
          <mxGeometry x="970" y="410" width="60" height="30" as="geometry" />
        </mxCell>
        <mxCell id="efe_fb2LawiKcRLY6Q70-60" style="edgeStyle=orthogonalEdgeStyle;rounded=0;orthogonalLoop=1;jettySize=auto;html=1;entryX=0;entryY=0.5;entryDx=0;entryDy=0;exitX=0.5;exitY=0;exitDx=0;exitDy=0;curved=1;" edge="1" parent="1" source="efe_fb2LawiKcRLY6Q70-59" target="efe_fb2LawiKcRLY6Q70-7">
          <mxGeometry relative="1" as="geometry" />
        </mxCell>
        <mxCell id="efe_fb2LawiKcRLY6Q70-61" style="edgeStyle=orthogonalEdgeStyle;rounded=0;orthogonalLoop=1;jettySize=auto;html=1;exitX=1;exitY=0.5;exitDx=0;exitDy=0;entryX=0;entryY=0.5;entryDx=0;entryDy=0;curved=1;" edge="1" parent="1" source="efe_fb2LawiKcRLY6Q70-59" target="efe_fb2LawiKcRLY6Q70-10">
          <mxGeometry relative="1" as="geometry" />
        </mxCell>
        <mxCell id="efe_fb2LawiKcRLY6Q70-59" value="Оформление заказа&lt;div&gt;(Указать сведения о клиенте, указать что будет в заказе, указать способ оплаты )&lt;/div&gt;" style="rounded=1;whiteSpace=wrap;html=1;" vertex="1" parent="1">
          <mxGeometry x="330" y="480" width="120" height="110" as="geometry" />
        </mxCell>
        <mxCell id="efe_fb2LawiKcRLY6Q70-65" value="" style="ellipse;html=1;shape=endState;fillColor=#000000;strokeColor=#ff0000;" vertex="1" parent="1">
          <mxGeometry x="705" y="645" width="30" height="30" as="geometry" />
        </mxCell>
      </root>
    </mxGraphModel>
  </diagram>
  <diagram id="P5m4tTX152c4vqV_9wHH" name="Страница — 2">
    <mxGraphModel dx="954" dy="558" grid="1" gridSize="9" guides="1" tooltips="1" connect="1" arrows="1" fold="1" page="1" pageScale="1" pageWidth="827" pageHeight="1169" math="0" shadow="0">
      <root>
        <mxCell id="0" />
        <mxCell id="1" parent="0" />
        <mxCell id="YBxkuoC4nwafWYIMqoBv-1" value="" style="ellipse;html=1;shape=startState;fillColor=#000000;strokeColor=#ff0000;" vertex="1" parent="1">
          <mxGeometry x="160.5" y="63" width="30" height="30" as="geometry" />
        </mxCell>
        <mxCell id="YBxkuoC4nwafWYIMqoBv-2" value="" style="edgeStyle=orthogonalEdgeStyle;html=1;verticalAlign=bottom;endArrow=open;endSize=8;strokeColor=#ff0000;rounded=0;entryX=0.5;entryY=0;entryDx=0;entryDy=0;" edge="1" parent="1" target="yA73thmc9jpB6qRa-tSc-1">
          <mxGeometry relative="1" as="geometry">
            <mxPoint x="175.5" y="153" as="targetPoint" />
            <mxPoint x="175.50000000000023" y="93" as="sourcePoint" />
          </mxGeometry>
        </mxCell>
        <mxCell id="yA73thmc9jpB6qRa-tSc-5" style="edgeStyle=orthogonalEdgeStyle;rounded=0;orthogonalLoop=1;jettySize=auto;html=1;exitX=1;exitY=0.5;exitDx=0;exitDy=0;strokeColor=#FF3333;" edge="1" parent="1" source="yA73thmc9jpB6qRa-tSc-1" target="yA73thmc9jpB6qRa-tSc-2">
          <mxGeometry relative="1" as="geometry" />
        </mxCell>
        <mxCell id="yA73thmc9jpB6qRa-tSc-1" value="Указаны данные для заказа(способ оплаты, данные клиента, что в заказе)" style="rounded=1;whiteSpace=wrap;html=1;" vertex="1" parent="1">
          <mxGeometry x="99" y="126" width="153" height="60" as="geometry" />
        </mxCell>
        <mxCell id="yA73thmc9jpB6qRa-tSc-2" value="Есть доставка на адрес" style="rhombus;whiteSpace=wrap;html=1;fontColor=#000000;fillColor=#ffffc0;strokeColor=#ff0000;" vertex="1" parent="1">
          <mxGeometry x="315" y="126" width="81" height="62" as="geometry" />
        </mxCell>
        <mxCell id="yA73thmc9jpB6qRa-tSc-3" value="нет" style="edgeStyle=orthogonalEdgeStyle;html=1;align=left;verticalAlign=bottom;endArrow=open;endSize=8;strokeColor=#ff0000;rounded=0;entryX=0.5;entryY=0;entryDx=0;entryDy=0;" edge="1" source="yA73thmc9jpB6qRa-tSc-2" parent="1" target="9DRsVPQW1dYEy5yKrQRt-4">
          <mxGeometry x="-1" relative="1" as="geometry">
            <mxPoint x="243" y="234" as="targetPoint" />
            <Array as="points">
              <mxPoint x="355" y="90" />
              <mxPoint x="279" y="90" />
              <mxPoint x="279" y="207" />
              <mxPoint x="175" y="207" />
            </Array>
          </mxGeometry>
        </mxCell>
        <mxCell id="yA73thmc9jpB6qRa-tSc-4" value="да" style="edgeStyle=orthogonalEdgeStyle;html=1;align=left;verticalAlign=top;endArrow=open;endSize=8;strokeColor=#ff0000;rounded=0;entryX=0.5;entryY=0;entryDx=0;entryDy=0;" edge="1" source="yA73thmc9jpB6qRa-tSc-2" parent="1" target="t-pdRJcAZ96b13bqi4-b-2">
          <mxGeometry x="-1" relative="1" as="geometry">
            <mxPoint x="355" y="244" as="targetPoint" />
          </mxGeometry>
        </mxCell>
        <mxCell id="yA73thmc9jpB6qRa-tSc-6" value="Наличие товаров" style="rhombus;whiteSpace=wrap;html=1;fontColor=#000000;fillColor=#ffffc0;strokeColor=#ff0000;" vertex="1" parent="1">
          <mxGeometry x="315" y="306" width="80" height="54" as="geometry" />
        </mxCell>
        <mxCell id="yA73thmc9jpB6qRa-tSc-7" value="нет" style="edgeStyle=orthogonalEdgeStyle;html=1;align=left;verticalAlign=bottom;endArrow=open;endSize=8;strokeColor=#ff0000;rounded=0;entryX=1;entryY=0.5;entryDx=0;entryDy=0;" edge="1" source="yA73thmc9jpB6qRa-tSc-6" parent="1" target="9DRsVPQW1dYEy5yKrQRt-4">
          <mxGeometry x="-0.8458" relative="1" as="geometry">
            <mxPoint x="230.99999999999977" y="318" as="targetPoint" />
            <mxPoint as="offset" />
          </mxGeometry>
        </mxCell>
        <mxCell id="yA73thmc9jpB6qRa-tSc-8" value="да" style="edgeStyle=orthogonalEdgeStyle;html=1;align=left;verticalAlign=top;endArrow=open;endSize=8;strokeColor=#ff0000;rounded=0;entryX=0.5;entryY=0;entryDx=0;entryDy=0;" edge="1" source="yA73thmc9jpB6qRa-tSc-6" parent="1" target="yA73thmc9jpB6qRa-tSc-11">
          <mxGeometry x="-1" relative="1" as="geometry">
            <mxPoint x="355.5" y="405" as="targetPoint" />
          </mxGeometry>
        </mxCell>
        <mxCell id="yA73thmc9jpB6qRa-tSc-11" value="Оплата наличными" style="rhombus;whiteSpace=wrap;html=1;fontColor=#000000;fillColor=#ffffc0;strokeColor=#ff0000;" vertex="1" parent="1">
          <mxGeometry x="315" y="405" width="80" height="54" as="geometry" />
        </mxCell>
        <mxCell id="yA73thmc9jpB6qRa-tSc-12" value="нет" style="edgeStyle=orthogonalEdgeStyle;html=1;align=left;verticalAlign=bottom;endArrow=open;endSize=8;strokeColor=#ff0000;rounded=0;entryX=1;entryY=0.5;entryDx=0;entryDy=0;" edge="1" source="yA73thmc9jpB6qRa-tSc-11" parent="1" target="yA73thmc9jpB6qRa-tSc-14">
          <mxGeometry x="-0.8175" y="-9" relative="1" as="geometry">
            <mxPoint x="270" y="432" as="targetPoint" />
            <Array as="points">
              <mxPoint x="293" y="432" />
              <mxPoint x="264" y="433" />
            </Array>
            <mxPoint as="offset" />
          </mxGeometry>
        </mxCell>
        <mxCell id="yA73thmc9jpB6qRa-tSc-13" value="да" style="edgeStyle=orthogonalEdgeStyle;html=1;align=left;verticalAlign=top;endArrow=open;endSize=8;strokeColor=#ff0000;rounded=0;entryX=1;entryY=0.5;entryDx=0;entryDy=0;" edge="1" source="yA73thmc9jpB6qRa-tSc-11" parent="1" target="yA73thmc9jpB6qRa-tSc-31">
          <mxGeometry x="-1" relative="1" as="geometry">
            <mxPoint x="355" y="514" as="targetPoint" />
            <Array as="points">
              <mxPoint x="355" y="524" />
            </Array>
            <mxPoint as="offset" />
          </mxGeometry>
        </mxCell>
        <mxCell id="yA73thmc9jpB6qRa-tSc-17" style="edgeStyle=orthogonalEdgeStyle;rounded=0;orthogonalLoop=1;jettySize=auto;html=1;strokeColor=#FF3333;entryX=0.5;entryY=1;entryDx=0;entryDy=0;exitX=0;exitY=0.5;exitDx=0;exitDy=0;" edge="1" parent="1" source="yA73thmc9jpB6qRa-tSc-14" target="9DRsVPQW1dYEy5yKrQRt-4">
          <mxGeometry relative="1" as="geometry">
            <mxPoint x="216.0000000000066" y="303" as="targetPoint" />
          </mxGeometry>
        </mxCell>
        <mxCell id="yA73thmc9jpB6qRa-tSc-18" value="[Оплата&amp;nbsp;&lt;div&gt;не прошла]&lt;/div&gt;" style="edgeLabel;html=1;align=center;verticalAlign=middle;resizable=0;points=[];" vertex="1" connectable="0" parent="yA73thmc9jpB6qRa-tSc-17">
          <mxGeometry x="0.1388" relative="1" as="geometry">
            <mxPoint x="-5" y="27" as="offset" />
          </mxGeometry>
        </mxCell>
        <mxCell id="yA73thmc9jpB6qRa-tSc-14" value="Оплата заказа" style="rounded=1;whiteSpace=wrap;html=1;arcSize=40;fontColor=#000000;fillColor=#ffffc0;strokeColor=#ff0000;" vertex="1" parent="1">
          <mxGeometry x="162" y="412" width="120" height="40" as="geometry" />
        </mxCell>
        <mxCell id="yA73thmc9jpB6qRa-tSc-15" value="" style="edgeStyle=orthogonalEdgeStyle;html=1;verticalAlign=bottom;endArrow=open;endSize=8;strokeColor=#ff0000;rounded=0;entryX=0;entryY=0.5;entryDx=0;entryDy=0;" edge="1" source="yA73thmc9jpB6qRa-tSc-14" parent="1" target="yA73thmc9jpB6qRa-tSc-31">
          <mxGeometry relative="1" as="geometry">
            <mxPoint x="204" y="514" as="targetPoint" />
            <Array as="points">
              <mxPoint x="198" y="524" />
            </Array>
          </mxGeometry>
        </mxCell>
        <mxCell id="yA73thmc9jpB6qRa-tSc-16" value="[оплата прошла успешно]" style="edgeLabel;html=1;align=center;verticalAlign=middle;resizable=0;points=[];" vertex="1" connectable="0" parent="yA73thmc9jpB6qRa-tSc-15">
          <mxGeometry x="-0.0798" y="1" relative="1" as="geometry">
            <mxPoint x="-2" y="-17" as="offset" />
          </mxGeometry>
        </mxCell>
        <mxCell id="yA73thmc9jpB6qRa-tSc-19" value="Создание заказа" style="rounded=1;whiteSpace=wrap;html=1;arcSize=40;fontColor=#000000;fillColor=#ffffc0;strokeColor=#ff0000;" vertex="1" parent="1">
          <mxGeometry x="216" y="567" width="120" height="40" as="geometry" />
        </mxCell>
        <mxCell id="yA73thmc9jpB6qRa-tSc-25" style="edgeStyle=orthogonalEdgeStyle;rounded=0;orthogonalLoop=1;jettySize=auto;html=1;exitX=0.25;exitY=0.5;exitDx=0;exitDy=0;exitPerimeter=0;entryX=0.5;entryY=0;entryDx=0;entryDy=0;" edge="1" parent="1" source="yA73thmc9jpB6qRa-tSc-22" target="yA73thmc9jpB6qRa-tSc-26">
          <mxGeometry relative="1" as="geometry">
            <mxPoint x="237" y="720" as="targetPoint" />
          </mxGeometry>
        </mxCell>
        <mxCell id="EQkMtV3GqG5Rig17Blnx-4" value="[Заказ поступает в ресторан]" style="edgeLabel;html=1;align=center;verticalAlign=middle;resizable=0;points=[];" vertex="1" connectable="0" parent="yA73thmc9jpB6qRa-tSc-25">
          <mxGeometry x="-0.5036" relative="1" as="geometry">
            <mxPoint as="offset" />
          </mxGeometry>
        </mxCell>
        <mxCell id="EQkMtV3GqG5Rig17Blnx-6" style="edgeStyle=orthogonalEdgeStyle;rounded=0;orthogonalLoop=1;jettySize=auto;html=1;exitX=0.75;exitY=0.5;exitDx=0;exitDy=0;exitPerimeter=0;entryX=0.5;entryY=0;entryDx=0;entryDy=0;" edge="1" parent="1" source="yA73thmc9jpB6qRa-tSc-22" target="qulTzGUadgtdKHCIvYUt-5">
          <mxGeometry relative="1" as="geometry" />
        </mxCell>
        <mxCell id="yA73thmc9jpB6qRa-tSc-22" value="" style="shape=line;html=1;strokeWidth=6;strokeColor=#ff0000;" vertex="1" parent="1">
          <mxGeometry x="216" y="639" width="157" height="10" as="geometry" />
        </mxCell>
        <mxCell id="yA73thmc9jpB6qRa-tSc-24" style="edgeStyle=orthogonalEdgeStyle;rounded=0;orthogonalLoop=1;jettySize=auto;html=1;exitX=0.5;exitY=1;exitDx=0;exitDy=0;entryX=0.491;entryY=0.429;entryDx=0;entryDy=0;entryPerimeter=0;" edge="1" parent="1" source="yA73thmc9jpB6qRa-tSc-19" target="yA73thmc9jpB6qRa-tSc-22">
          <mxGeometry relative="1" as="geometry" />
        </mxCell>
        <mxCell id="yA73thmc9jpB6qRa-tSc-26" value="Ресторан принимает заказ" style="rounded=1;whiteSpace=wrap;html=1;arcSize=40;fontColor=#000000;fillColor=#ffffc0;strokeColor=#ff0000;" vertex="1" parent="1">
          <mxGeometry x="144" y="720" width="120" height="40" as="geometry" />
        </mxCell>
        <mxCell id="yA73thmc9jpB6qRa-tSc-27" value="" style="edgeStyle=orthogonalEdgeStyle;html=1;verticalAlign=bottom;endArrow=open;endSize=8;strokeColor=#ff0000;rounded=0;exitX=0.425;exitY=1.094;exitDx=0;exitDy=0;exitPerimeter=0;entryX=-0.013;entryY=0.44;entryDx=0;entryDy=0;entryPerimeter=0;" edge="1" parent="1" target="qulTzGUadgtdKHCIvYUt-1">
          <mxGeometry relative="1" as="geometry">
            <mxPoint x="225" y="909" as="targetPoint" />
            <mxPoint x="180" y="774" as="sourcePoint" />
            <Array as="points">
              <mxPoint x="180" y="909" />
            </Array>
          </mxGeometry>
        </mxCell>
        <mxCell id="EQkMtV3GqG5Rig17Blnx-5" value="[Ресторан отдаёт заказ]" style="edgeLabel;html=1;align=center;verticalAlign=middle;resizable=0;points=[];" vertex="1" connectable="0" parent="yA73thmc9jpB6qRa-tSc-27">
          <mxGeometry x="-0.186" y="2" relative="1" as="geometry">
            <mxPoint as="offset" />
          </mxGeometry>
        </mxCell>
        <mxCell id="qulTzGUadgtdKHCIvYUt-3" style="edgeStyle=orthogonalEdgeStyle;rounded=0;orthogonalLoop=1;jettySize=auto;html=1;exitX=1;exitY=0.5;exitDx=0;exitDy=0;entryX=0.5;entryY=1;entryDx=0;entryDy=0;" edge="1" parent="1" source="yA73thmc9jpB6qRa-tSc-29" target="EQkMtV3GqG5Rig17Blnx-11">
          <mxGeometry relative="1" as="geometry">
            <mxPoint x="540" y="630" as="targetPoint" />
          </mxGeometry>
        </mxCell>
        <mxCell id="qulTzGUadgtdKHCIvYUt-4" value="&amp;nbsp;Курьер смог забрать заказ" style="edgeLabel;html=1;align=center;verticalAlign=middle;resizable=0;points=[];" vertex="1" connectable="0" parent="qulTzGUadgtdKHCIvYUt-3">
          <mxGeometry x="0.2519" y="1" relative="1" as="geometry">
            <mxPoint x="10" as="offset" />
          </mxGeometry>
        </mxCell>
        <mxCell id="yA73thmc9jpB6qRa-tSc-29" value="Курьер забирает заказ" style="rounded=1;whiteSpace=wrap;html=1;arcSize=40;fontColor=#000000;fillColor=#ffffc0;strokeColor=#ff0000;" vertex="1" parent="1">
          <mxGeometry x="354" y="842" width="120" height="40" as="geometry" />
        </mxCell>
        <mxCell id="yA73thmc9jpB6qRa-tSc-34" style="edgeStyle=orthogonalEdgeStyle;rounded=0;orthogonalLoop=1;jettySize=auto;html=1;exitX=0.5;exitY=1;exitDx=0;exitDy=0;entryX=0.5;entryY=0;entryDx=0;entryDy=0;" edge="1" parent="1" source="yA73thmc9jpB6qRa-tSc-31" target="yA73thmc9jpB6qRa-tSc-19">
          <mxGeometry relative="1" as="geometry" />
        </mxCell>
        <mxCell id="yA73thmc9jpB6qRa-tSc-31" value="" style="rhombus;whiteSpace=wrap;html=1;fontColor=#000000;fillColor=#ffffc0;strokeColor=#ff0000;" vertex="1" parent="1">
          <mxGeometry x="235" y="504" width="80" height="40" as="geometry" />
        </mxCell>
        <mxCell id="qulTzGUadgtdKHCIvYUt-13" style="edgeStyle=orthogonalEdgeStyle;rounded=0;orthogonalLoop=1;jettySize=auto;html=1;exitX=0;exitY=0.5;exitDx=0;exitDy=0;entryX=1;entryY=0.5;entryDx=0;entryDy=0;" edge="1" parent="1" source="EQkMtV3GqG5Rig17Blnx-11" target="qulTzGUadgtdKHCIvYUt-10">
          <mxGeometry relative="1" as="geometry">
            <Array as="points" />
          </mxGeometry>
        </mxCell>
        <mxCell id="qulTzGUadgtdKHCIvYUt-14" value="Нет" style="edgeLabel;html=1;align=center;verticalAlign=middle;resizable=0;points=[];" vertex="1" connectable="0" parent="qulTzGUadgtdKHCIvYUt-13">
          <mxGeometry x="-0.9156" y="1" relative="1" as="geometry">
            <mxPoint x="2" y="8" as="offset" />
          </mxGeometry>
        </mxCell>
        <mxCell id="t-pdRJcAZ96b13bqi4-b-5" style="edgeStyle=orthogonalEdgeStyle;rounded=0;orthogonalLoop=1;jettySize=auto;html=1;exitX=1;exitY=0.5;exitDx=0;exitDy=0;" edge="1" parent="1" source="EQkMtV3GqG5Rig17Blnx-11">
          <mxGeometry relative="1" as="geometry">
            <mxPoint x="754.9999999999999" y="470.0816326530612" as="targetPoint" />
          </mxGeometry>
        </mxCell>
        <mxCell id="EQkMtV3GqG5Rig17Blnx-11" value="" style="rhombus;whiteSpace=wrap;html=1;fontColor=#000000;fillColor=#ffffc0;strokeColor=#ff0000;" vertex="1" parent="1">
          <mxGeometry x="675" y="450" width="80" height="40" as="geometry" />
        </mxCell>
        <mxCell id="EQkMtV3GqG5Rig17Blnx-13" value="Да" style="edgeStyle=orthogonalEdgeStyle;html=1;align=left;verticalAlign=top;endArrow=open;endSize=8;strokeColor=#ff0000;rounded=0;entryX=0.5;entryY=1;entryDx=0;entryDy=0;exitX=1;exitY=0.5;exitDx=0;exitDy=0;" edge="1" source="EQkMtV3GqG5Rig17Blnx-11" parent="1" target="qulTzGUadgtdKHCIvYUt-15">
          <mxGeometry x="-0.7941" y="-2" relative="1" as="geometry">
            <mxPoint x="612" y="360" as="targetPoint" />
            <mxPoint as="offset" />
          </mxGeometry>
        </mxCell>
        <mxCell id="qulTzGUadgtdKHCIvYUt-1" value="Заказ ожидает курьера" style="rounded=1;whiteSpace=wrap;html=1;arcSize=40;fontColor=#000000;fillColor=#ffffc0;strokeColor=#ff0000;" vertex="1" parent="1">
          <mxGeometry x="252" y="891" width="120" height="40" as="geometry" />
        </mxCell>
        <mxCell id="qulTzGUadgtdKHCIvYUt-2" value="" style="edgeStyle=orthogonalEdgeStyle;html=1;verticalAlign=bottom;endArrow=open;endSize=8;strokeColor=#ff0000;rounded=0;entryX=0.5;entryY=1;entryDx=0;entryDy=0;exitX=1;exitY=0.5;exitDx=0;exitDy=0;" edge="1" source="qulTzGUadgtdKHCIvYUt-1" parent="1" target="yA73thmc9jpB6qRa-tSc-29">
          <mxGeometry relative="1" as="geometry">
            <mxPoint x="288.5" y="996" as="targetPoint" />
            <mxPoint x="348.5000000000002" y="916.0769230769231" as="sourcePoint" />
          </mxGeometry>
        </mxCell>
        <mxCell id="qulTzGUadgtdKHCIvYUt-5" value="Выбор наиближайшего курьера" style="rounded=1;whiteSpace=wrap;html=1;arcSize=40;fontColor=#000000;fillColor=#ffffc0;strokeColor=#ff0000;" vertex="1" parent="1">
          <mxGeometry x="336" y="720" width="120" height="40" as="geometry" />
        </mxCell>
        <mxCell id="qulTzGUadgtdKHCIvYUt-8" value="" style="edgeStyle=orthogonalEdgeStyle;html=1;verticalAlign=bottom;endArrow=open;endSize=8;strokeColor=#ff0000;rounded=0;exitX=0.5;exitY=1;exitDx=0;exitDy=0;entryX=0.5;entryY=0;entryDx=0;entryDy=0;" edge="1" source="qulTzGUadgtdKHCIvYUt-5" parent="1" target="yA73thmc9jpB6qRa-tSc-29">
          <mxGeometry relative="1" as="geometry">
            <mxPoint x="663" y="676" as="targetPoint" />
            <mxPoint x="663" y="616" as="sourcePoint" />
          </mxGeometry>
        </mxCell>
        <mxCell id="qulTzGUadgtdKHCIvYUt-9" value="[Курьеру поступает&lt;div&gt;&amp;nbsp;информация о заказе]&lt;/div&gt;" style="edgeLabel;html=1;align=center;verticalAlign=middle;resizable=0;points=[];" vertex="1" connectable="0" parent="qulTzGUadgtdKHCIvYUt-8">
          <mxGeometry x="-0.423" relative="1" as="geometry">
            <mxPoint y="-1" as="offset" />
          </mxGeometry>
        </mxCell>
        <mxCell id="9DRsVPQW1dYEy5yKrQRt-9" style="edgeStyle=orthogonalEdgeStyle;rounded=0;orthogonalLoop=1;jettySize=auto;html=1;exitX=0;exitY=0.5;exitDx=0;exitDy=0;entryX=0.75;entryY=0;entryDx=0;entryDy=0;" edge="1" parent="1" source="qulTzGUadgtdKHCIvYUt-10" target="qulTzGUadgtdKHCIvYUt-5">
          <mxGeometry relative="1" as="geometry">
            <mxPoint x="570" y="540" as="targetPoint" />
            <Array as="points">
              <mxPoint x="456" y="470" />
              <mxPoint x="456" y="684" />
              <mxPoint x="426" y="684" />
            </Array>
          </mxGeometry>
        </mxCell>
        <mxCell id="qulTzGUadgtdKHCIvYUt-10" value="Вызвать другого курьера" style="rounded=1;whiteSpace=wrap;html=1;arcSize=40;fontColor=#000000;fillColor=#ffffc0;strokeColor=#ff0000;" vertex="1" parent="1">
          <mxGeometry x="486" y="450" width="120" height="40" as="geometry" />
        </mxCell>
        <mxCell id="t-pdRJcAZ96b13bqi4-b-11" style="edgeStyle=orthogonalEdgeStyle;rounded=0;orthogonalLoop=1;jettySize=auto;html=1;exitX=0;exitY=0.5;exitDx=0;exitDy=0;entryX=1;entryY=0.5;entryDx=0;entryDy=0;" edge="1" parent="1" source="qulTzGUadgtdKHCIvYUt-15" target="t-pdRJcAZ96b13bqi4-b-8">
          <mxGeometry relative="1" as="geometry" />
        </mxCell>
        <mxCell id="t-pdRJcAZ96b13bqi4-b-12" value="[оплата&lt;div&gt;&amp;nbsp;наличными]&lt;/div&gt;" style="edgeLabel;html=1;align=center;verticalAlign=middle;resizable=0;points=[];" vertex="1" connectable="0" parent="t-pdRJcAZ96b13bqi4-b-11">
          <mxGeometry x="0.0776" y="-2" relative="1" as="geometry">
            <mxPoint as="offset" />
          </mxGeometry>
        </mxCell>
        <mxCell id="qulTzGUadgtdKHCIvYUt-15" value="Заказ передан курьеру" style="rounded=1;whiteSpace=wrap;html=1;arcSize=40;fontColor=#000000;fillColor=#ffffc0;strokeColor=#ff0000;" vertex="1" parent="1">
          <mxGeometry x="642" y="306" width="120" height="40" as="geometry" />
        </mxCell>
        <mxCell id="9DRsVPQW1dYEy5yKrQRt-10" style="edgeStyle=orthogonalEdgeStyle;rounded=0;orthogonalLoop=1;jettySize=auto;html=1;entryX=0.5;entryY=1;entryDx=0;entryDy=0;" edge="1" parent="1" source="9DRsVPQW1dYEy5yKrQRt-1" target="9DRsVPQW1dYEy5yKrQRt-7">
          <mxGeometry relative="1" as="geometry" />
        </mxCell>
        <mxCell id="t-pdRJcAZ96b13bqi4-b-1" value="[Оценка качества обслуживания]" style="edgeLabel;html=1;align=center;verticalAlign=middle;resizable=0;points=[];" vertex="1" connectable="0" parent="9DRsVPQW1dYEy5yKrQRt-10">
          <mxGeometry x="0.037" relative="1" as="geometry">
            <mxPoint x="12" y="7" as="offset" />
          </mxGeometry>
        </mxCell>
        <mxCell id="9DRsVPQW1dYEy5yKrQRt-1" value="Заказ получен" style="rounded=1;whiteSpace=wrap;html=1;arcSize=40;fontColor=#000000;fillColor=#ffffc0;strokeColor=#ff0000;" vertex="1" parent="1">
          <mxGeometry x="567" y="126" width="120" height="40" as="geometry" />
        </mxCell>
        <mxCell id="9DRsVPQW1dYEy5yKrQRt-12" style="edgeStyle=orthogonalEdgeStyle;rounded=0;orthogonalLoop=1;jettySize=auto;html=1;entryX=0.5;entryY=0;entryDx=0;entryDy=0;" edge="1" parent="1" source="9DRsVPQW1dYEy5yKrQRt-4" target="9DRsVPQW1dYEy5yKrQRt-7">
          <mxGeometry relative="1" as="geometry">
            <Array as="points">
              <mxPoint x="63" y="245" />
              <mxPoint x="63" y="45" />
              <mxPoint x="483" y="45" />
            </Array>
          </mxGeometry>
        </mxCell>
        <mxCell id="9DRsVPQW1dYEy5yKrQRt-4" value="Отмена заказа" style="rounded=1;whiteSpace=wrap;html=1;arcSize=40;fontColor=#000000;fillColor=#ffffc0;strokeColor=#ff0000;" vertex="1" parent="1">
          <mxGeometry x="115.5" y="288" width="120" height="40" as="geometry" />
        </mxCell>
        <mxCell id="9DRsVPQW1dYEy5yKrQRt-7" value="" style="ellipse;html=1;shape=endState;fillColor=#000000;strokeColor=#ff0000;" vertex="1" parent="1">
          <mxGeometry x="612" y="45" width="30" height="30" as="geometry" />
        </mxCell>
        <mxCell id="9DRsVPQW1dYEy5yKrQRt-11" value="&lt;b&gt;Конец&lt;/b&gt;" style="text;html=1;align=center;verticalAlign=middle;resizable=0;points=[];autosize=1;strokeColor=none;fillColor=none;" vertex="1" parent="1">
          <mxGeometry x="642" y="45" width="63" height="27" as="geometry" />
        </mxCell>
        <mxCell id="t-pdRJcAZ96b13bqi4-b-4" style="edgeStyle=orthogonalEdgeStyle;rounded=0;orthogonalLoop=1;jettySize=auto;html=1;exitX=0.5;exitY=1;exitDx=0;exitDy=0;entryX=0.5;entryY=0;entryDx=0;entryDy=0;" edge="1" parent="1" source="t-pdRJcAZ96b13bqi4-b-2" target="yA73thmc9jpB6qRa-tSc-6">
          <mxGeometry relative="1" as="geometry" />
        </mxCell>
        <mxCell id="t-pdRJcAZ96b13bqi4-b-2" value="Расчёт времени доставки" style="rounded=1;whiteSpace=wrap;html=1;arcSize=40;fontColor=#000000;fillColor=#ffffc0;strokeColor=#ff0000;" vertex="1" parent="1">
          <mxGeometry x="295" y="225" width="120" height="40" as="geometry" />
        </mxCell>
        <mxCell id="t-pdRJcAZ96b13bqi4-b-19" style="edgeStyle=orthogonalEdgeStyle;rounded=0;orthogonalLoop=1;jettySize=auto;html=1;exitX=0.5;exitY=1;exitDx=0;exitDy=0;entryX=0.5;entryY=0;entryDx=0;entryDy=0;" edge="1" parent="1" source="t-pdRJcAZ96b13bqi4-b-8" target="t-pdRJcAZ96b13bqi4-b-17">
          <mxGeometry relative="1" as="geometry" />
        </mxCell>
        <mxCell id="t-pdRJcAZ96b13bqi4-b-20" value="да" style="edgeLabel;html=1;align=center;verticalAlign=middle;resizable=0;points=[];" vertex="1" connectable="0" parent="t-pdRJcAZ96b13bqi4-b-19">
          <mxGeometry x="-0.4737" y="1" relative="1" as="geometry">
            <mxPoint x="13" y="-5" as="offset" />
          </mxGeometry>
        </mxCell>
        <mxCell id="t-pdRJcAZ96b13bqi4-b-8" value="" style="rhombus;whiteSpace=wrap;html=1;fontColor=#000000;fillColor=#ffffc0;strokeColor=#ff0000;" vertex="1" parent="1">
          <mxGeometry x="468" y="306" width="80" height="40" as="geometry" />
        </mxCell>
        <mxCell id="t-pdRJcAZ96b13bqi4-b-9" value="no" style="edgeStyle=orthogonalEdgeStyle;html=1;align=left;verticalAlign=bottom;endArrow=open;endSize=8;strokeColor=#ff0000;rounded=0;exitX=0.5;exitY=0;exitDx=0;exitDy=0;entryX=0.5;entryY=1;entryDx=0;entryDy=0;" edge="1" source="t-pdRJcAZ96b13bqi4-b-8" parent="1" target="9DRsVPQW1dYEy5yKrQRt-1">
          <mxGeometry x="-1" relative="1" as="geometry">
            <mxPoint x="630" y="180" as="targetPoint" />
            <Array as="points">
              <mxPoint x="508" y="234" />
              <mxPoint x="627" y="234" />
            </Array>
          </mxGeometry>
        </mxCell>
        <mxCell id="t-pdRJcAZ96b13bqi4-b-15" value="[курьер доставил заказ]" style="edgeLabel;html=1;align=center;verticalAlign=middle;resizable=0;points=[];" vertex="1" connectable="0" parent="t-pdRJcAZ96b13bqi4-b-9">
          <mxGeometry x="0.7291" y="-2" relative="1" as="geometry">
            <mxPoint as="offset" />
          </mxGeometry>
        </mxCell>
        <mxCell id="t-pdRJcAZ96b13bqi4-b-21" style="edgeStyle=orthogonalEdgeStyle;rounded=0;orthogonalLoop=1;jettySize=auto;html=1;exitX=0;exitY=0.5;exitDx=0;exitDy=0;endArrow=none;endFill=0;fillColor=#fad9d5;strokeColor=#ae4132;" edge="1" parent="1" source="t-pdRJcAZ96b13bqi4-b-17">
          <mxGeometry relative="1" as="geometry">
            <mxPoint x="513" y="234" as="targetPoint" />
            <Array as="points">
              <mxPoint x="428" y="385" />
              <mxPoint x="428" y="234" />
            </Array>
          </mxGeometry>
        </mxCell>
        <mxCell id="t-pdRJcAZ96b13bqi4-b-17" value="Курьер забирает деньги" style="rounded=1;whiteSpace=wrap;html=1;arcSize=40;fontColor=#000000;fillColor=#ffffc0;strokeColor=#ff0000;" vertex="1" parent="1">
          <mxGeometry x="448" y="365" width="120" height="40" as="geometry" />
        </mxCell>
      </root>
    </mxGraphModel>
  </diagram>
</mxfile>
